<svg xmlns="http://www.w3.org/2000/svg" xmlns:xlink="http://www.w3.org/1999/xlink" width="880" height="446" viewBox="0 0 880 446"><defs><style>.a,.m{fill:#fff;}.b{clip-path:url(#a);}.c{fill:#daeaee;}.d{fill:#1371b1;}.e{fill:#a9cdd3;stroke:#fff;stroke-width:2px;}.e,.f{stroke-miterlimit:10;}.f,.g{fill:none;}.f{stroke:#9cb3b7;}.g{stroke:#557f84;stroke-linejoin:round;stroke-dasharray:12 20;}.h{fill:#eeb38c;}.i{fill:#1b384c;}.i,.j,.m{fill-rule:evenodd;}.j{fill:url(#b);}.k{fill:#0e2a30;}.l{fill:#12406f;}.m{opacity:0.12;}.n{fill:#f9f9f9;}.o{fill:#b0b0b0;}.p{fill:#0d3359;}</style><clipPath id="a"><rect class="a" width="880" height="446" transform="translate(4173 6462)"/></clipPath><linearGradient id="b" x1="0.5" x2="0.5" y2="1" gradientUnits="objectBoundingBox"><stop offset="0" stop-color="#54a0d4"/><stop offset="1" stop-color="#fff"/></linearGradient></defs><g class="b" transform="translate(-4173 -6462)"><path class="c" d="M65.326,1303.43H895.005s-53.489-74.8-125.075-50.271-196.557,38.609-228.381-49.065S449.4,1014.269,334.78,1042.421s-65.554,195.858-139.956,161.673S38.38,1217.366,23.5,1303.43Z" transform="translate(4165.505 5606.034)"/><g transform="translate(5214.768 6332.075)"><path class="d" d="M-660.8,253.636l-9.073-3.914a5.551,5.551,0,0,1-3.319-4.337,5.551,5.551,0,0,1,1.962-5.1l7.6-6.312a.243.243,0,0,0,.066-.289l-11.516-25.217a.242.242,0,0,0-.261-.139l-9.75,1.613a5.615,5.615,0,0,1-5.427-2.219,5.524,5.524,0,0,1-.813-4.982l2.984-9.42a.244.244,0,0,0-.1-.279l-23.321-14.988a.246.246,0,0,0-.3.024l-7.329,6.628a5.478,5.478,0,0,1-3.728,1.448,5.546,5.546,0,0,1-5.415-4.132l-2.583-9.539a.243.243,0,0,0-.235-.18h-27.722a.243.243,0,0,0-.235.18l-2.583,9.539a5.545,5.545,0,0,1-5.415,4.132,5.477,5.477,0,0,1-3.728-1.448l-7.329-6.628a.246.246,0,0,0-.3-.024l-23.321,14.988a.244.244,0,0,0-.1.279l2.984,9.42a5.526,5.526,0,0,1-.813,4.983,5.609,5.609,0,0,1-5.427,2.219l-9.749-1.613a.246.246,0,0,0-.261.139l-11.516,25.217a.243.243,0,0,0,.066.289l7.6,6.312a5.551,5.551,0,0,1,1.962,5.1,5.551,5.551,0,0,1-3.319,4.337l-9.073,3.914a.243.243,0,0,0-.145.259l3.946,27.44a.243.243,0,0,0,.211.207l9.809,1.2a5.55,5.55,0,0,1,4.405,3.226,5.551,5.551,0,0,1-.447,5.443l-5.517,8.2a.244.244,0,0,0,.018.3l18.154,20.951a.245.245,0,0,0,.29.06l8.9-4.294a5.551,5.551,0,0,1,2.429-.563,5.653,5.653,0,0,1,4.009,1.7,5.523,5.523,0,0,1,1.578,4.016l-.209,9.88a.244.244,0,0,0,.175.239l26.6,7.81a.244.244,0,0,0,.277-.106l5.165-8.424a5.551,5.551,0,0,1,4.764-2.668,5.55,5.55,0,0,1,4.764,2.668l5.166,8.424a.244.244,0,0,0,.207.116.254.254,0,0,0,.069-.01l26.6-7.81a.243.243,0,0,0,.175-.239l-.209-9.88a5.523,5.523,0,0,1,1.578-4.016,5.653,5.653,0,0,1,4.009-1.7,5.552,5.552,0,0,1,2.428.563l8.9,4.294a.246.246,0,0,0,.29-.06l18.154-20.951a.244.244,0,0,0,.018-.3l-5.517-8.2a5.551,5.551,0,0,1-.447-5.443,5.551,5.551,0,0,1,4.405-3.226l9.809-1.2a.244.244,0,0,0,.212-.207l3.945-27.44A.243.243,0,0,0-660.8,253.636Zm-84.412,42.342a39.97,39.97,0,0,1-39.97-39.971,39.97,39.97,0,0,1,39.97-39.97,39.97,39.97,0,0,1,39.97,39.97A39.971,39.971,0,0,1-745.207,295.979Z"/></g><path class="e" d="M205,1457.513H410.711V1295.731c-28.57,14.732-49.889,32.97-54.868,52.259-16.063,62.208-43.06,77.35-82.071,61.263S205,1457.513,205,1457.513Z" transform="translate(4056.999 5451.751)"/><path class="e" d="M410.71,1457.513H205V1295.731c28.57,14.732,49.889,32.97,54.868,52.259,16.063,62.208,43.06,77.35,82.071,61.263S410.71,1457.513,410.71,1457.513Z" transform="translate(4342 5451.751)"/><path class="c" d="M1448.409,1393.168c15.862,0,27.856.93,23.81-6.038s-9.5.836-11.509-4.181-7.7-13.379-17.119-6.411-1.12,12.264-10.149,8.641-9.836,7.339-.374,7.989A94.92,94.92,0,0,0,1448.409,1393.168Z" transform="translate(3561.863 5135.032)"/><path class="c" d="M772.3,449.533c24.043,0,42.222,1.408,36.09-9.153s-14.393,1.268-17.445-6.337S779.282,413.764,765,424.326s-1.7,18.589-15.382,13.1-14.91,11.124-.567,12.111A143.965,143.965,0,0,0,772.3,449.533Z" transform="translate(4091.835 6161.717)"/><path class="f" d="M607.814,387.168c19.462,0,34.178,1.14,29.214-7.409s-11.651,1.026-14.121-5.13-9.444-16.415-21-7.866-1.374,15.047-12.452,10.6-12.069,9-.459,9.8A116.524,116.524,0,0,0,607.814,387.168Z" transform="translate(3608.142 6175.531)"/><path class="f" d="M1390.414,1454.342c10.56,0,18.543.619,15.851-4.02s-6.322.556-7.662-2.783-5.124-8.906-11.4-4.268-.745,8.164-6.756,5.752-6.548,4.885-.249,5.319A63.212,63.212,0,0,0,1390.414,1454.342Z" transform="translate(3357.118 5364.605)"/><path class="g" d="M1234.5,347.7s45.631-23.116,68.447,14.71c20.134,33.38.9,62.143-12.909,69.648" transform="translate(3364.406 6129.074)"/><path class="g" d="M93,1403.545s49.869-57.511,117.836-27.75" transform="translate(4123.956 5408.996)"/><path class="g" d="M1462,1528.564s38.608,33.38,127.488,7.239,125.477-15.282,162.879,30.967" transform="translate(3305.529 5316.553)"/><path class="g" d="M565.756,503s-46.24,59.653-18,114.364" transform="translate(3826.372 6012.271)"/><path class="d" d="M23.5,0A23.5,23.5,0,1,1,0,23.5,23.5,23.5,0,0,1,23.5,0Z" transform="translate(4447 6565)"/><g transform="translate(525 -48.503)"><path class="h" d="M585.8,681.051c-7.545-12.881-28.685-15.669-17.521-23.827-.315.229,4.271-3.794,5.386-5.054.471-.532.81-.894,1.089-1.184.161-.307.356-.666.638-1.161.47-.821,2.256-5.391,1.705-3.481a40.979,40.979,0,0,0,1.217-4.522c.137-.777.238-1.325.311-1.68.08-.889.176-1.774.232-2.662.129-2.4.243-4.794.27-7.2.061-5.276.017-10.552.007-15.827-.012-6.971,2.289-12.444,5.9-16.45-6.522-4.206-13.594-4.763-16.144-1.149l-.907,1.286L564,603.785l-.233.33-2.975-2.1,3.941-5.586,4-5.678,3.226-4.572c2.676-3.794-.639-10.734-7.382-15.493s-14.4-5.549-17.072-1.757l-3.227,4.574-4,5.676-3.94,5.587-2.975-2.1,18-25.513-.025-.019c.143-.2.3-.374.447-.581l23.664-33.548c4.33-6.139,2.355-14.974-4.387-19.731S555.325,499.624,551,505.76l-23.663,33.549c-.145.206-.26.409-.386.625l-.038-.025-52.1,73.861-13.753,26.95-3.861-74.572c2.088-8.788,3.387-17.309-3.88-22.434a16.1,16.1,0,0,0-22.424,3.879l-4.259,62.454s-7.2,17.055-2.2,43.72l11.722,23.586c.51,135.948,8.379,89.37.51,100.307l99.42,11.256c2.815-11.256.571-66.241.571-66.241,4.018-1.279,15.332-4.695,21.035-7.7,2.719-1.43,7.2-4.3,12.631-10.991C580.172,690.511,588.272,685.272,585.8,681.051Z" transform="translate(3497.955 6127.741)"/><path class="h" d="M689.615,466.755c-6.755-4.764-15.736-3.652-20.065,2.484l-23.663,33.549c-.145.206-.26.41-.386.625l-.038-.026-52.1,73.863-.224-.158c.048.295.092.589.139.884,1.76,10.905,2.55,23.588,6.383,34.144l.039.038c.049.023.1.047.146.073.066-.463.685.094,1.028.544.069.038.144.077.2.112.2.059.373.109.617.184q2.16.7,4.359,1.273c.105.027.211.047.317.073.008-.008.02-.028.027-.036,1.6-2.193,3.2-4.389,4.76-6.612,9.7-13.808,18.657-28.1,27.161-42.666a23.876,23.876,0,0,1,17.37-12.016,27.658,27.658,0,0,1-.04-5.913l-.755,1.073-2.975-2.1,7.382-10.462a23.868,23.868,0,0,1,2.576-3.655l8.04-11.4-.025-.018c.143-.2.3-.375.447-.582L694,486.486C698.33,480.348,696.356,471.513,689.615,466.755Z" transform="translate(3428.175 6142.69)"/><path class="i" d="M621.659,629.288a7.983,7.983,0,0,1-8.035,7.888H488.59a7.986,7.986,0,0,1-8.036-7.888V378.229a7.987,7.987,0,0,1,8.036-7.89H613.624a7.984,7.984,0,0,1,8.035,7.89Z" transform="translate(3474.259 6180.947)"/><path class="j" d="M613.282,420.219H491.522v28.458l-.01-.009v7.665l.009.008V477.49h0V503.1h-.006v6.33h.006l0,63.543h0v5.754h0V608.1h0v7.665h0v19.123H619.673V420.219Z" transform="translate(3469.774 6160.529)"/><g transform="translate(3888.466 6867.773)"><rect class="a" width="159.864" height="173.565" transform="translate(9.801)"/><path class="k" d="M598.91,940.516a7.284,7.284,0,1,0-6.866-7.688A7.291,7.291,0,0,0,598.91,940.516Z" transform="translate(-459.838 -914.26)"/><rect class="l" width="176.421" height="137.295" transform="translate(0 36.271)"/></g><path class="m" d="M601.7,797.112a5.566,5.566,0,1,1-5.566-5.564A5.565,5.565,0,0,1,601.7,797.112Z" transform="translate(3430.742 6010.048)"/><path class="h" d="M715.081,699.944a11.119,11.119,0,0,1-7.651,13.732l-26.776,7.1a11.123,11.123,0,0,1-13.448-8.138h0a11.12,11.12,0,0,1,7.651-13.729l26.777-7.1a11.12,11.12,0,0,1,13.447,8.136Z" transform="translate(3398.017 6049.503)"/><path class="h" d="M525.34,793.128c.492-2,.926-4,1.268-5.988-.36-1.075.741-22.376-24.113-39.787-11.5-8.057-25.065-6.256-31.279-5.688v51.462Z" transform="translate(3478.082 6029.186)"/><g transform="translate(3979.37 6626.458)"><path class="l" d="M568.124,497.605l46,37.521-46.172,39.6-45.82-39.6Z" transform="translate(-522.129 -497.605)"/><rect class="l" width="79.346" height="4.239" transform="translate(6.192 8.388)"/><rect class="n" width="79.346" height="76.445" transform="translate(6.192 12.627)"/><g transform="translate(13.023 33.762)"><rect class="o" width="29.725" height="1.804"/><rect class="o" width="65.681" height="1.804" transform="translate(0 7.38)"/><rect class="o" width="65.681" height="1.805" transform="translate(0 11.48)"/><rect class="o" width="65.681" height="1.804" transform="translate(0 15.581)"/><rect class="o" width="65.681" height="1.805" transform="translate(0 19.68)"/></g><g transform="translate(13.023 57.549)"><rect class="o" width="65.681" height="1.803"/><rect class="o" width="65.681" height="1.805" transform="translate(0 4.099)"/><rect class="o" width="65.681" height="1.802" transform="translate(0 8.201)"/><rect class="o" width="65.681" height="1.804" transform="translate(0 12.3)"/></g><path class="p" d="M617.537,561.128V618.1a5.027,5.027,0,0,1-5.012,5.011h-81.97C527.394,623.107,617.537,561.128,617.537,561.128Z" transform="translate(-525.545 -523.607)"/><path class="l" d="M522.129,561.128V618.1a5.026,5.026,0,0,0,5.011,5.011h81.97C612.273,623.107,522.129,561.128,522.129,561.128Z" transform="translate(-522.129 -523.607)"/></g><path class="h" d="M707.92,595.527c3.222,6.832.894,14.7-5.2,17.573l-28,13.2c-6.093,2.872-13.643-.342-16.862-7.176h0c-3.221-6.833-.9-14.7,5.194-17.573l28-13.2c6.093-2.87,13.644.341,16.864,7.176Z" transform="translate(3402.273 6092.137)"/><path class="h" d="M713.968,654.73c1.55,6.279-1.94,12.54-7.792,13.985l-26.891,6.636c-5.854,1.444-11.854-2.476-13.4-8.755h0c-1.549-6.279,1.939-12.54,7.787-13.985l26.893-6.636c5.854-1.445,11.857,2.476,13.4,8.755Z" transform="translate(3398.548 6068.242)"/></g><g transform="translate(4567.028 6461.751)"><circle class="d" cx="40.476" cy="40.476" r="40.476" transform="translate(0 57.241) rotate(-45)"/><g transform="translate(30.736 39.228)"><g transform="translate(13.639 0.002)"><path class="a" d="M792,124.919c0-.007-.007-.01-.007-.017s0-.01-.007-.014l-.007-.007c0-.007,0-.01-.007-.017a0,0,0,0,1,0,0s0-.007-.007-.01a.4.4,0,0,0-.058-.072.077.077,0,0,0-.024-.024.527.527,0,0,0-.188-.113l-.038-.01a.518.518,0,0,0-.27.007l-.051.017s0,0-.007,0c-.02.01-.041.021-.058.031a.554.554,0,0,0-.058.038l-3.439,2.073-34.6,20.9-.253.154a.514.514,0,0,0-.209.64l.068.164,4.027,9.553a.557.557,0,0,0,.127.216.491.491,0,0,0,.044.041.462.462,0,0,0,.086.058c.007,0,.01.007.017.007a.439.439,0,0,0,.058.024.424.424,0,0,0,.062.017.526.526,0,0,0,.1.01.512.512,0,0,0,.352-.14l.219-.209,4.376-4.212.424-.407.37-.356-.633-.291-.366-.171h0l-.79.763h0l-3.2,3.076-.568.547-.4-.961-3.251-7.719,31.223-18.86.01-.007,2.8-1.69-4.695,4.516,7.09-5.659-.188.442,1.776-1.708a.39.39,0,0,0,.038-.038.412.412,0,0,0,.075-.1.175.175,0,0,0,.031-.055c0-.007.007-.01.01-.017a.4.4,0,0,0,.031-.11.431.431,0,0,0,.01-.092A.5.5,0,0,0,792,124.919Z" transform="translate(-752.676 -124.617)"/></g><g transform="translate(18.789 0.002)"><path class="a" d="M805.862,124.919c0-.007-.007-.01-.007-.017s0-.01-.007-.014l-.007-.007s0-.007-.007-.01v-.007a0,0,0,0,1,0,0s0-.007-.007-.01a.4.4,0,0,0-.058-.072.076.076,0,0,0-.024-.024.527.527,0,0,0-.188-.113l-.038-.01a.518.518,0,0,0-.27.007l-.051.017s0,0-.007,0c-.02.01-.041.021-.058.031a.566.566,0,0,0-.058.038l-6.145,4.907-.01.007L771.9,151.214a.245.245,0,0,0-.044.038.275.275,0,0,0-.055.055.175.175,0,0,0-.024.031.514.514,0,0,0-.082.181v.007a.314.314,0,0,0-.01.058.671.671,0,0,0,0,.113.5.5,0,0,0,.294.4l.616.287,2.515,1.17h0l.041.021.958.441.044.024,14.094,6.549a.521.521,0,0,0,.216.048.5.5,0,0,0,.185-.034.518.518,0,0,0,.288-.277l14.925-35a.409.409,0,0,0,.031-.11.431.431,0,0,0,.01-.092A.5.5,0,0,0,805.862,124.919ZM790.2,159.44l-13.3-6.183-.633-.291-.366-.171h0l-2.741-1.277,23.869-19.059,7.09-5.659-.188.442Z" transform="translate(-771.684 -124.617)"/></g><path class="a" d="M716.485,148.8a.511.511,0,0,1-.247-.063L702.6,141.273a.513.513,0,0,1,.1-.942l51.984-15.7a.513.513,0,0,1,.414.931L716.75,148.725A.511.511,0,0,1,716.485,148.8Zm-12.319-7.839,12.306,6.734,34.6-20.9Z" transform="translate(-702.332 -124.611)"/></g></g></g></svg>